<svg width="24" height="27" viewBox="0 0 24 27" fill="none" xmlns="http://www.w3.org/2000/svg">
<path d="M13 19.5418C13 20.1585 12.5523 20.6584 12 20.6584C11.4477 20.6584 11 20.1585 11 19.5418C11 18.925 11.4477 18.4251 12 18.4251C12.5523 18.4251 13 18.925 13 19.5418Z" fill="#DF913A"/>
<path d="M12.75 10.3293C12.75 9.86672 12.4142 9.49176 12 9.49176C11.5858 9.49176 11.25 9.86672 11.25 10.3293L11.25 15.3543C11.25 15.8168 11.5858 16.1918 12 16.1918C12.4142 16.1918 12.75 15.8168 12.75 15.3543L12.75 10.3293Z" fill="#DF913A"/>
<path fill-rule="evenodd" clip-rule="evenodd" d="M9.83587 3.6226C10.7985 1.76382 13.2015 1.76382 14.1642 3.6226L23.1306 20.9358C24.0944 22.7969 22.8917 25.1251 20.9664 25.1251L3.03364 25.1251C1.10834 25.1251 -0.0943731 22.7969 0.869482 20.9358L9.83587 3.6226ZM12.8657 4.46115C12.4806 3.71764 11.5194 3.71764 11.1344 4.46115L2.16798 21.7744C1.78244 22.5188 2.26352 23.4501 3.03364 23.4501L20.9664 23.4501C21.7365 23.4501 22.2176 22.5188 21.8321 21.7744L12.8657 4.46115Z" fill="#DF913A"/>
</svg>
