<svg width="62" height="61" viewBox="0 0 62 61" fill="none" xmlns="http://www.w3.org/2000/svg">
<path fill-rule="evenodd" clip-rule="evenodd" d="M53.0362 16.0887C53.5715 16.6248 53.8723 17.3516 53.8723 18.1093C53.8723 18.867 53.5715 19.5938 53.0362 20.1299L25.3956 47.7705C24.8595 48.3058 24.1327 48.6066 23.375 48.6066C22.6172 48.6066 21.8905 48.3058 21.3544 47.7705L8.96373 35.3799C8.45865 34.8379 8.18369 34.121 8.19673 33.3802C8.20981 32.6394 8.50989 31.9326 9.0338 31.4087C9.55768 30.8848 10.2645 30.5848 11.0052 30.5717C11.746 30.5586 12.4629 30.8336 13.005 31.3387L23.375 41.7087L48.995 16.0887C49.531 15.5532 50.2577 15.2524 51.0156 15.2524C51.7732 15.2524 52.5002 15.5532 53.0362 16.0887Z" fill="#ED642D"/>
</svg>
