<svg width="24" height="24" viewBox="0 0 24 24" fill="none" xmlns="http://www.w3.org/2000/svg">
<path d="M12 22C17.5228 22 22 17.5228 22 12C22 6.47715 17.5228 2 12 2C6.47715 2 2 6.47715 2 12C2 17.5228 6.47715 22 12 22Z" fill="white"/>
<path d="M9.30832 14.025L10.65 14.6249C11.5083 15.0083 12.4917 15.0083 13.3583 14.6249L14.7 14.025C15.9 13.4916 17.0083 14.9416 16.175 15.9583L13.2917 19.4833C12.5833 20.3499 11.425 20.3499 10.7083 19.4833L7.83332 15.9583C6.99166 14.9416 8.09999 13.4916 9.30832 14.025Z" fill="#42476C"/>
<path d="M9.14169 11.7251C8.89169 11.9084 8.92502 12.2918 9.20836 12.4334L11.1667 13.4084C11.625 13.6418 12.3667 13.6418 12.8167 13.4084L14.775 12.4334C15.05 12.2918 15.0834 11.9168 14.8417 11.7251L12.25 9.7751C12.1 9.66676 11.9 9.66676 11.75 9.7751L9.14169 11.7251Z" fill="#42476C"/>
<path d="M16.9 8.86651L13.425 4.53318C13.3583 4.44985 13.2833 4.37485 13.2083 4.29985C12.9916 4.09151 12.6833 4.28318 12.6833 4.58318V8.16651C12.6833 8.29985 12.7416 8.42485 12.85 8.49985L16.3083 11.0998L16.4583 11.2082C16.6083 11.3165 16.8166 11.3165 16.9416 11.1832C17.525 10.5498 17.5166 9.63318 16.9 8.86651Z" fill="#42476C"/>
<path d="M7.09163 8.94154L10.55 4.54154C10.6166 4.45821 10.6833 4.38321 10.7583 4.30821C10.975 4.09987 11.2833 4.28321 11.2833 4.59154V8.2332C11.2833 8.36654 11.225 8.4832 11.1166 8.56654L7.67496 11.2082L7.53329 11.3165C7.38329 11.4249 7.17496 11.4249 7.04163 11.2832C6.47496 10.6415 6.48329 9.72487 7.09163 8.94154Z" fill="#42476C"/>
</svg>
