<svg width="20" height="20" viewBox="0 0 20 20" fill="none" xmlns="http://www.w3.org/2000/svg">
<path d="M12.9166 9.99998C12.9166 11.6108 11.6107 12.9166 9.9999 12.9166C8.38907 12.9166 7.08323 11.6108 7.08323 9.99998C7.08323 8.38915 8.38907 7.08331 9.9999 7.08331C11.6107 7.08331 12.9166 8.38915 12.9166 9.99998Z" fill="#263238"/>
<path fill-rule="evenodd" clip-rule="evenodd" d="M10 2.91675C7.14009 2.91675 4.89625 4.19522 3.28826 5.61726C1.68357 7.03638 0.678671 8.62615 0.274662 9.33446C0.037434 9.75036 0.0374333 10.2498 0.274662 10.6657C0.678671 11.374 1.68357 12.9638 3.28826 14.3829C4.89625 15.8049 7.14009 17.0834 10 17.0834C12.8599 17.0834 15.1038 15.8049 16.7118 14.3829C18.3164 12.9637 19.3213 11.3739 19.7253 10.6656C19.9625 10.2497 19.9625 9.7503 19.7253 9.3344C19.3213 8.6261 18.3164 7.03634 16.7117 5.61724C15.1038 4.19521 12.8599 2.91675 10 2.91675ZM1.36045 9.95378C1.72835 9.30879 2.65341 7.84738 4.11634 6.55363C5.57595 5.26281 7.53739 4.16675 10 4.16675C12.4626 4.16675 14.4241 5.2628 15.8837 6.55361C17.3466 7.84734 18.2716 9.30873 18.6395 9.95372C18.6505 9.97288 18.6532 9.98836 18.6532 10C18.6532 10.0117 18.6505 10.0272 18.6395 10.0463C18.2716 10.6913 17.3466 12.1527 15.8837 13.4465C14.4241 14.7373 12.4626 15.8334 10 15.8334C7.53739 15.8334 5.57595 14.7374 4.11634 13.4465C2.65341 12.1528 1.72835 10.6914 1.36045 10.0464C1.34952 10.0272 1.34674 10.0117 1.34674 10.0001C1.34674 9.98842 1.34952 9.97294 1.36045 9.95378Z" fill="#263238"/>
</svg>
