<svg width="22" height="23" viewBox="0 0 22 23" fill="none" xmlns="http://www.w3.org/2000/svg">
<path d="M8.70831 13.1044C8.70831 13.9935 9.39583 14.7085 10.2392 14.7085H11.9625C12.6958 14.7085 13.2916 14.0852 13.2916 13.306C13.2916 12.4719 12.925 12.1694 12.3842 11.9769L9.62498 11.0144C9.08415 10.8219 8.71749 10.5285 8.71749 9.68521C8.71749 8.91521 9.31331 8.28271 10.0466 8.28271H11.77C12.6133 8.28271 13.3008 8.99771 13.3008 9.88688" stroke="#292D32" stroke-linecap="round" stroke-linejoin="round"/>
<path d="M11 7.375V15.625" stroke="#292D32" stroke-linecap="round" stroke-linejoin="round"/>
<path d="M20.1666 11.5002C20.1666 16.5602 16.06 20.6668 11 20.6668C5.93998 20.6668 1.83331 16.5602 1.83331 11.5002C1.83331 6.44016 5.93998 2.3335 11 2.3335" stroke="#292D32" stroke-linecap="round" stroke-linejoin="round"/>
<path d="M15.5833 3.25V6.91667H19.25" stroke="#292D32" stroke-linecap="round" stroke-linejoin="round"/>
<path d="M20.1666 2.3335L15.5833 6.91683" stroke="#292D32" stroke-linecap="round" stroke-linejoin="round"/>
</svg>
