<svg width="23" height="22" viewBox="0 0 23 22" fill="none" xmlns="http://www.w3.org/2000/svg">
<path d="M2.88045 7C4.39083 3.75092 7.68339 1.5 11.5 1.5C15.9465 1.5 19.6811 4.55546 20.7155 8.68234C20.8162 9.08412 21.2235 9.3282 21.6253 9.2275C22.0271 9.1268 22.2712 8.71945 22.1705 8.31766C20.9729 3.53939 16.6507 0 11.5 0C7.44757 0 3.90828 2.19117 2 5.45159L2 3.75C2 3.33579 1.66421 3 1.25 3C0.835786 3 0.5 3.33579 0.5 3.75L0.5 7.5C0.5 8.05228 0.947715 8.5 1.5 8.5L5.25 8.5C5.66421 8.5 6 8.16421 6 7.75C6 7.33579 5.66421 7 5.25 7H2.88045Z" fill="#24292E"/>
<path d="M2.28456 13.3177C2.18386 12.9159 1.77651 12.6718 1.37473 12.7725C0.972939 12.8732 0.728863 13.2806 0.829565 13.6823C2.02717 18.4606 6.34932 22 11.5 22C15.5524 22 19.0917 19.8089 21 16.5485V18.25C21 18.6642 21.3358 19 21.75 19C22.1642 19 22.5 18.6642 22.5 18.25V14.5C22.5 13.9477 22.0523 13.5 21.5 13.5L17.75 13.5C17.3358 13.5 17 13.8358 17 14.25C17 14.6642 17.3358 15 17.75 15L20.1196 15C18.6092 18.2491 15.3166 20.5 11.5 20.5C7.05358 20.5 3.3189 17.4445 2.28456 13.3177Z" fill="#24292E"/>
</svg>
