<svg width="22" height="12" viewBox="0 0 22 12" fill="none" xmlns="http://www.w3.org/2000/svg">
<path d="M5.768 9.936C6.86 9.936 7.77 9.558 8.498 8.802C9.23533 8.046 9.604 7.122 9.604 6.03C9.604 4.938 9.23533 4.014 8.498 3.258C7.77 2.502 6.86 2.124 5.768 2.124C4.68533 2.124 3.77533 2.502 3.038 3.258C2.31 4.014 1.946 4.938 1.946 6.03C1.946 7.122 2.31 8.046 3.038 8.802C3.77533 9.558 4.68533 9.936 5.768 9.936ZM5.768 11.168C4.34 11.168 3.12667 10.6733 2.128 9.684C1.12933 8.68533 0.63 7.46733 0.63 6.03C0.63 4.59267 1.12933 3.37933 2.128 2.39C3.12667 1.39133 4.34 0.891999 5.768 0.891999C7.20533 0.891999 8.41867 1.39133 9.408 2.39C10.4067 3.37933 10.906 4.59267 10.906 6.03C10.906 7.46733 10.4067 8.68533 9.408 9.684C8.41867 10.6733 7.20533 11.168 5.768 11.168ZM16.6207 9.936C17.7127 9.936 18.6227 9.558 19.3507 8.802C20.0881 8.046 20.4567 7.122 20.4567 6.03C20.4567 4.938 20.0881 4.014 19.3507 3.258C18.6227 2.502 17.7127 2.124 16.6207 2.124C15.5381 2.124 14.6281 2.502 13.8907 3.258C13.1627 4.014 12.7987 4.938 12.7987 6.03C12.7987 7.122 13.1627 8.046 13.8907 8.802C14.6281 9.558 15.5381 9.936 16.6207 9.936ZM16.6207 11.168C15.1927 11.168 13.9794 10.6733 12.9807 9.684C11.9821 8.68533 11.4827 7.46733 11.4827 6.03C11.4827 4.59267 11.9821 3.37933 12.9807 2.39C13.9794 1.39133 15.1927 0.891999 16.6207 0.891999C18.0581 0.891999 19.2714 1.39133 20.2607 2.39C21.2594 3.37933 21.7587 4.59267 21.7587 6.03C21.7587 7.46733 21.2594 8.68533 20.2607 9.684C19.2714 10.6733 18.0581 11.168 16.6207 11.168Z" fill="#0D0D0D"/>
</svg>
