<svg width="20" height="21" viewBox="0 0 20 21" fill="none" xmlns="http://www.w3.org/2000/svg">
<path fill-rule="evenodd" clip-rule="evenodd" d="M9.6875 18C8.47937 18 7.5 17.0206 7.5 15.8125L7.5 5.1875C7.5 3.97938 8.47937 3 9.6875 3L17.8125 3C19.0206 3 20 3.97938 20 5.1875L20 15.8125C20 17.0206 19.0206 18 17.8125 18L9.6875 18ZM9.375 15.8125C9.375 15.9851 9.51491 16.125 9.6875 16.125L17.8125 16.125C17.9851 16.125 18.125 15.9851 18.125 15.8125L18.125 5.1875C18.125 5.01491 17.9851 4.875 17.8125 4.875L9.6875 4.875C9.51491 4.875 9.375 5.01491 9.375 5.1875L9.375 15.8125ZM6.124 4.88516C6.38326 5.33334 6.23011 5.90684 5.78192 6.1661C5.68607 6.22154 5.625 6.32287 5.625 6.43736L5.625 14.5624C5.625 14.6769 5.68607 14.7781 5.78192 14.8336C6.23011 15.0929 6.38326 15.6664 6.124 16.1146C5.86475 16.5627 5.29125 16.7159 4.84306 16.4566C4.19168 16.0799 3.75 15.3733 3.75 14.5624L3.75 6.43736C3.75 5.6265 4.19168 4.9199 4.84307 4.54309C5.29125 4.28382 5.86475 4.43698 6.124 4.88516ZM2.03192 7.4161C2.48011 7.15684 2.63326 6.58334 2.374 6.13516C2.11475 5.68698 1.54125 5.53382 1.09307 5.79309C0.44167 6.1699 0 6.8765 0 7.68736L0 13.3124C0 14.1233 0.44167 14.8299 1.09307 15.2066C1.54125 15.4659 2.11475 15.3127 2.374 14.8646C2.63326 14.4164 2.48011 13.8429 2.03192 13.5836C1.93607 13.5281 1.875 13.4269 1.875 13.3124L1.875 7.68736C1.875 7.57288 1.93607 7.47154 2.03192 7.4161Z" fill="#24292E"/>
</svg>
